<?xml version="1.0" encoding="utf-8"?>
<!-- Generator: Adobe Illustrator 24.1.3, SVG Export Plug-In . SVG Version: 6.00 Build 0)  -->
<svg version="1.1" id="Layer_1" xmlns="http://www.w3.org/2000/svg" xmlns:xlink="http://www.w3.org/1999/xlink" x="0px" y="0px"
	 viewBox="0 0 400 400" style="enable-background:new 0 0 400 400;" xml:space="preserve">
<style type="text/css">
	.st0{fill:#000000;}
</style>
<g>
	<path class="st0" d="M168.39,132.98"/>
	<g>
		<path class="st0" d="M70.7,284.49c0.26,0.77,0.51,1.54,0.79,2.31C71.22,286.03,70.95,285.26,70.7,284.49z"/>
		<path class="st0" d="M286.82,278.66c1.84-30-11.96-58.22-26.52-83.54c-12.54-21.81-33.9-37.23-45.16-59.69
			c-16.66-33.23,6.81-73.91,24.63-101.84c-4.98,66.65,11.95,102.33,29.1,122.74c9.05,10.77,15.22,13.79,28.27,30.71
			c20.67,26.8,40.83,52.94,37.36,85.4c-4.41,41.21-43.98,65.3-50.71,69.39c-18.86,11.47-37.09,14.86-48.04,16.01
			C263.95,341.74,284.81,311.41,286.82,278.66z"/>
		<path class="st0" d="M237.03,356.22c-0.8,1.06-1.26,1.62-1.26,1.62C236.18,357.32,236.6,356.78,237.03,356.22z"/>
		<path class="st0" d="M73.58,292.32c-0.55-1.35-1.07-2.7-1.56-4.05C72.51,289.63,73.03,290.98,73.58,292.32z"/>
		<path class="st0" d="M99.16,215.23c-1.07-24.01,3.77-44.97,9.84-61.54c4.94,1.16-3.02,23.88,10.73,49.27
			c8.73,16.11,26.27,37,45.06,40.64c-4.33-18.96-17-36.39-21.53-56.03c-4.09-17.73-3.18-35.21,1.44-51.79
			c14.95,6.26,35.1,16.64,55.7,33.81c24.55,20.47,39.81,42.33,48.71,57.49c-0.52,18.75-3.55,47.01-16.01,78.73
			c-10.45,26.61-23.98,46.61-34.69,60.05C187.14,358.91,103.19,305.41,99.16,215.23z"/>
		<path class="st0" d="M200.4,169.58c-20.6-17.18-40.75-27.55-55.7-33.81c1.31-4.7,2.91-9.32,4.79-13.85
			c6.79-14.51,17.83-33.09,35.63-50.91c20.13-20.15,40.94-31.37,54.65-37.42c-17.82,27.94-41.29,68.61-24.63,101.84
			c11.26,22.45,32.62,37.88,45.16,59.69c14.55,25.32,28.35,53.54,26.52,83.54c-2.01,32.75-22.87,63.08-51.05,79.18
			c0,0,0.47-0.56,1.26-1.62c7.12-9.26,16.36-23.93,21.42-43.75c10.41-40.77-4.17-74.66-9.34-85.4
			C240.21,211.91,224.95,190.06,200.4,169.58z"/>
		<path class="st0" d="M200.4,169.58c-20.6-17.18-40.75-27.55-55.7-33.81c1.31-4.7,2.91-9.32,4.79-13.85
			c6.79-14.51,17.83-33.09,35.63-50.91c20.13-20.15,40.94-31.37,54.65-37.42c-12.54,5.53-26.85,48.28-28.94,61.75
			c-7.08,45.54,29.6,65.2,49.48,99.78c14.55,25.32,28.35,53.54,26.52,83.54c-2.01,32.75-22.87,63.08-51.05,79.18
			c0,0,0.47-0.56,1.26-1.62c7.12-9.26,16.36-23.93,21.42-43.75c10.41-40.77-4.17-74.66-9.34-85.4
			C240.21,211.91,224.95,190.06,200.4,169.58z"/>
		<path class="st0" d="M71.49,286.8c0.17,0.49,0.35,0.98,0.53,1.47C71.83,287.79,71.66,287.3,71.49,286.8z"/>
		<polygon class="st0" points="108.99,153.69 109,153.68 109,153.69 108.99,153.69 		"/>
		<path class="st0" d="M71.49,286.8c-0.27-0.77-0.53-1.54-0.79-2.31c-12.42-37.89-2.16-74.4,11.02-99.18
			c7.04-11.82,16.17-22.57,27.27-31.62c0,0,0,0,0,0c0,0,0,0,0,0c-6.07,16.56-10.91,37.53-9.84,61.54
			c4.03,90.19,87.98,143.68,99.24,150.62c-54.13,5.14-104.97-25.22-124.83-73.52c-0.55-1.34-1.07-2.69-1.56-4.05
			C71.83,287.79,71.66,287.3,71.49,286.8z"/>
		<path class="st0" d="M71.49,286.8c-0.27-0.77-0.53-1.54-0.79-2.31c-12.42-37.89-2.16-74.4,11.02-99.18
			c7.04-11.82,16.17-22.57,27.27-31.62c0,0,0,0,0,0c0,0,0,0,0,0c-6.07,16.56-10.91,37.53-9.84,61.54
			c4.03,90.19,87.98,143.68,99.24,150.62c-54.13,5.14-104.97-25.22-124.83-73.52c-0.55-1.34-1.07-2.69-1.56-4.05
			C71.83,287.79,71.66,287.3,71.49,286.8z"/>
	</g>
</g>
</svg>
